<svg version="1.1" xmlns="http://www.w3.org/2000/svg" style="display: block;" viewBox="0 0 2048 2048" width="1000" height="1000" preserveAspectRatio="none">
<defs>
	<linearGradient id="Gradient1" gradientUnits="userSpaceOnUse" x1="1494.9" y1="667.977" x2="1528.1" y2="636.023">
		<stop class="stop0" offset="0" stop-opacity="1" stop-color="rgb(50,148,255)"/>
		<stop class="stop1" offset="1" stop-opacity="1" stop-color="rgb(63,178,255)"/>
	</linearGradient>
	<linearGradient id="Gradient2" gradientUnits="userSpaceOnUse" x1="1411.19" y1="722.073" x2="1452.98" y2="696.202">
		<stop class="stop0" offset="0" stop-opacity="1" stop-color="rgb(41,123,255)"/>
		<stop class="stop1" offset="1" stop-opacity="1" stop-color="rgb(55,166,255)"/>
	</linearGradient>
	<linearGradient id="Gradient3" gradientUnits="userSpaceOnUse" x1="1339.59" y1="675.446" x2="1387.72" y2="604.09">
		<stop class="stop0" offset="0" stop-opacity="1" stop-color="rgb(46,139,255)"/>
		<stop class="stop1" offset="1" stop-opacity="1" stop-color="rgb(66,185,255)"/>
	</linearGradient>
	<linearGradient id="Gradient4" gradientUnits="userSpaceOnUse" x1="1266.11" y1="1054.65" x2="1500.13" y2="879.833">
		<stop class="stop0" offset="0" stop-opacity="1" stop-color="rgb(32,151,255)"/>
		<stop class="stop1" offset="1" stop-opacity="1" stop-color="rgb(114,234,254)"/>
	</linearGradient>
	<linearGradient id="Gradient5" gradientUnits="userSpaceOnUse" x1="1171.71" y1="1078.15" x2="1364.44" y2="880.029">
		<stop class="stop0" offset="0" stop-opacity="1" stop-color="rgb(30,109,255)"/>
		<stop class="stop1" offset="1" stop-opacity="1" stop-color="rgb(73,197,255)"/>
	</linearGradient>
	<linearGradient id="Gradient6" gradientUnits="userSpaceOnUse" x1="924.338" y1="592.102" x2="1187.72" y2="404.388">
		<stop class="stop0" offset="0" stop-opacity="1" stop-color="rgb(59,178,255)"/>
		<stop class="stop1" offset="1" stop-opacity="1" stop-color="rgb(122,241,253)"/>
	</linearGradient>
	<linearGradient id="Gradient7" gradientUnits="userSpaceOnUse" x1="448.848" y1="899.55" x2="898.337" y2="613.033">
		<stop class="stop0" offset="0" stop-opacity="1" stop-color="rgb(27,84,255)"/>
		<stop class="stop1" offset="1" stop-opacity="1" stop-color="rgb(58,173,255)"/>
	</linearGradient>
	<linearGradient id="Gradient8" gradientUnits="userSpaceOnUse" x1="1104.3" y1="1183.5" x2="1118.45" y2="1236.35">
		<stop class="stop0" offset="0" stop-opacity="1" stop-color="rgb(36,110,255)"/>
		<stop class="stop1" offset="1" stop-opacity="1" stop-color="rgb(9,55,217)"/>
	</linearGradient>
	<linearGradient id="Gradient9" gradientUnits="userSpaceOnUse" x1="1050.42" y1="1186.42" x2="1069.35" y2="1035.33">
		<stop class="stop0" offset="0" stop-opacity="1" stop-color="rgb(31,105,255)"/>
		<stop class="stop1" offset="1" stop-opacity="1" stop-color="rgb(73,203,255)"/>
	</linearGradient>
	<linearGradient id="Gradient10" gradientUnits="userSpaceOnUse" x1="1441.86" y1="1035.47" x2="1405.44" y2="1156.21">
		<stop class="stop0" offset="0" stop-opacity="1" stop-color="rgb(1,47,194)"/>
		<stop class="stop1" offset="1" stop-opacity="1" stop-color="rgb(21,80,235)"/>
	</linearGradient>
	<linearGradient id="Gradient11" gradientUnits="userSpaceOnUse" x1="603.747" y1="930.06" x2="664.507" y2="996.527">
		<stop class="stop0" offset="0" stop-opacity="1" stop-color="rgb(1,49,197)"/>
		<stop class="stop1" offset="1" stop-opacity="1" stop-color="rgb(22,82,234)"/>
	</linearGradient>
	<linearGradient id="Gradient12" gradientUnits="userSpaceOnUse" x1="1034.23" y1="910.597" x2="1010.97" y2="1527.85">
		<stop class="stop0" offset="0" stop-opacity="1" stop-color="rgb(26,88,246)"/>
		<stop class="stop1" offset="1" stop-opacity="1" stop-color="rgb(47,146,255)"/>
	</linearGradient>
</defs>
<path transform="translate(0,0)" fill="url(#Gradient12)" d="M 529.833 1047.31 C 532.689 1041.15 529.833 1038.5 532.557 1033.97 L 535.119 1033.45 C 536.177 1036.82 532.472 1040.4 533.234 1045.53 C 561.39 952.652 602.803 922.264 683.719 873.511 C 707.176 859.377 732.298 841.334 756.396 827.651 C 757.584 868.357 756.883 914.188 756.518 955.158 C 756.731 981.842 756.767 1008.53 756.625 1035.21 C 756.474 1089.95 752.322 1136.32 803.941 1171.11 C 818.877 1181.17 834.222 1190.41 849.528 1199.88 L 943.976 1257.58 L 1016.76 1302.35 C 1026.07 1307.97 1040.12 1317.02 1049.5 1321.79 C 1023.02 1298.81 996.804 1264.07 973.654 1237.23 C 964.384 1226.48 953.107 1212.78 945.364 1200.97 C 942.175 1196.11 940.102 1187.64 940.205 1182.32 C 940.537 1165.27 938.938 1033.09 941.066 1026.97 C 947.588 1029.56 1008.64 1125.1 1017.99 1137.43 C 1021.36 1133.5 1025.59 1130.4 1030.35 1128.37 C 1022.64 1115.83 1012.9 1101.43 1003.91 1089.78 C 986.321 1066.96 971.04 1039.48 953.178 1017.21 C 998.505 1029.87 1045.04 1050.78 1090.16 1065.18 C 1103.9 1069.57 1115.36 1072.86 1121.48 1087.09 C 1131.93 1111.55 1153.96 1142.24 1162.63 1166.94 C 1165.81 1171.7 1168.22 1175.86 1169.78 1181.46 C 1198.36 1161.83 1227.26 1143.21 1256.83 1125.09 C 1263.03 1121.29 1269.63 1116.54 1276.15 1113.55 C 1281 1109.47 1286.5 1106.28 1291.89 1102.89 C 1293.86 1101.89 1295.24 1100.94 1297.1 1099.73 C 1313.18 1088.79 1329.38 1078.01 1345.69 1067.4 C 1370.68 1050.85 1402.22 1024.65 1434.04 1031.86 C 1472.39 1040.56 1500.25 1083.8 1514.92 1117.45 C 1516.72 1121.51 1517.92 1126.49 1519.95 1130.13 C 1525.1 1171.39 1519.75 1214.19 1499.59 1250.97 C 1497.14 1255.44 1492.46 1264.17 1489.26 1267.88 C 1465.63 1304.96 1423.42 1325.93 1387.11 1347.71 C 1343.58 1373.84 1299.73 1399.46 1255.59 1424.54 L 1160.75 1480.44 C 1116.71 1506.34 1078.96 1532.66 1025.78 1530.96 C 983.797 1529.62 953.274 1514.14 917.752 1493.44 C 896.015 1480.77 874.668 1468 853.166 1455.25 L 699.513 1364.64 C 673.161 1348.77 631.999 1327.83 608.653 1311.3 C 569.228 1282.8 542.451 1240.07 534 1192.16 C 527.857 1162.58 529.755 1126.4 529.41 1095.74 C 529.268 1083.19 528.804 1058.92 529.833 1047.31 z M 1057.94 1189.87 C 1064.13 1197.65 1068.09 1204.11 1072.68 1212.92 C 1076.7 1217.27 1078.66 1221.67 1081.35 1226.89 C 1087.15 1222.19 1091.79 1219.08 1098.11 1215.26 L 1079.07 1193.27 C 1074.81 1188.83 1072.48 1186.63 1069.15 1181.33 C 1066.06 1184.93 1062.24 1187.84 1057.94 1189.87 z"/>
<path transform="translate(0,0)" fill="url(#Gradient11)" d="M 529.833 1047.31 C 532.689 1041.15 529.833 1038.5 532.557 1033.97 L 535.119 1033.45 C 536.177 1036.82 532.472 1040.4 533.234 1045.53 C 561.39 952.652 602.803 922.264 683.719 873.511 C 707.176 859.377 732.298 841.334 756.396 827.651 C 757.584 868.357 756.883 914.188 756.518 955.158 C 751.205 943.951 757.679 908.001 753.141 900.686 C 745.971 901.096 735.605 918.104 730.478 923.456 C 708.525 946.221 685.31 967.81 662.225 989.42 C 649.899 1000.96 638.426 1015.26 626.009 1026.34 C 602.02 1047.75 574.261 1066.38 554.518 1092.21 C 548.733 1099.77 542.974 1107.24 537.096 1114.7 L 533.835 1114.87 C 527.703 1127.62 535.967 1178.9 534 1192.16 C 527.857 1162.58 529.755 1126.4 529.41 1095.74 C 529.268 1083.19 528.804 1058.92 529.833 1047.31 z"/>
<path transform="translate(0,0)" fill="url(#Gradient10)" d="M 1297.1 1099.73 C 1313.18 1088.79 1329.38 1078.01 1345.69 1067.4 C 1370.68 1050.85 1402.22 1024.65 1434.04 1031.86 C 1472.39 1040.56 1500.25 1083.8 1514.92 1117.45 C 1516.72 1121.51 1517.92 1126.49 1519.95 1130.13 C 1525.1 1171.39 1519.75 1214.19 1499.59 1250.97 C 1497.14 1255.44 1492.46 1264.17 1489.26 1267.88 C 1489.54 1262.97 1507.03 1229.72 1510.33 1220.38 C 1514.05 1209.5 1516.63 1198.27 1518.03 1186.86 C 1518.31 1184.5 1519.78 1167.2 1519.68 1166.49 L 1518.28 1168.95 C 1485.96 1175.13 1480.45 1173.04 1448.7 1167.84 C 1403.53 1160.44 1376.82 1142.18 1340.61 1115.53 C 1331.89 1109.11 1317.39 1101.26 1307.42 1095.18 C 1302.25 1098.99 1281.18 1113.49 1276.15 1113.55 C 1281 1109.47 1286.5 1106.28 1291.89 1102.89 C 1293.86 1101.89 1295.24 1100.94 1297.1 1099.73 z"/>
<path transform="translate(0,0)" fill="url(#Gradient9)" d="M 953.178 1017.21 C 998.505 1029.87 1045.04 1050.78 1090.16 1065.18 C 1103.9 1069.57 1115.36 1072.86 1121.48 1087.09 C 1131.93 1111.55 1153.96 1142.24 1162.63 1166.94 C 1162.79 1168.48 1163.78 1172.65 1162.84 1173.77 C 1159.48 1177.78 1100.71 1187.1 1091.1 1189 C 1088.94 1189.43 1082.23 1189.93 1080.72 1190.95 C 1080.3 1191.23 1079.35 1192.77 1079.07 1193.27 C 1074.81 1188.83 1072.48 1186.63 1069.15 1181.33 C 1079.35 1169.44 1080.01 1152.09 1070.75 1139.46 C 1061.5 1126.83 1044.76 1122.23 1030.35 1128.37 C 1022.64 1115.83 1012.9 1101.43 1003.91 1089.78 C 986.321 1066.96 971.04 1039.48 953.178 1017.21 z"/>
<path transform="translate(0,0)" fill="rgb(254,254,254)" d="M 1030.35 1128.37 C 1044.76 1122.23 1061.5 1126.83 1070.75 1139.46 C 1080.01 1152.09 1079.35 1169.44 1069.15 1181.33 C 1066.06 1184.93 1062.24 1187.84 1057.94 1189.87 C 1043.56 1196.65 1026.39 1192.46 1016.75 1179.81 C 1007.12 1167.16 1007.63 1149.5 1017.99 1137.43 C 1021.36 1133.5 1025.59 1130.4 1030.35 1128.37 z"/>
<path transform="translate(0,0)" fill="url(#Gradient8)" d="M 1162.63 1166.94 C 1165.81 1171.7 1168.22 1175.86 1169.78 1181.46 C 1164.49 1186.48 1134.98 1205.6 1127.22 1210.39 C 1104.94 1224.15 1076.36 1245.95 1053.8 1257.08 L 1054.5 1256.28 C 1068.38 1240.61 1085.03 1235.64 1072.15 1214.97 L 1072.68 1212.92 C 1076.7 1217.27 1078.66 1221.67 1081.35 1226.89 C 1087.15 1222.19 1091.79 1219.08 1098.11 1215.26 L 1079.07 1193.27 C 1079.35 1192.77 1080.3 1191.23 1080.72 1190.95 C 1082.23 1189.93 1088.94 1189.43 1091.1 1189 C 1100.71 1187.1 1159.48 1177.78 1162.84 1173.77 C 1163.78 1172.65 1162.79 1168.48 1162.63 1166.94 z"/>
<path transform="translate(0,0)" fill="url(#Gradient7)" d="M 892.782 440.227 C 943.738 407.41 993.46 376.869 1056.27 390.301 C 1069.96 393.328 1083.27 397.869 1095.95 403.839 C 1121.19 415.604 1145.04 430.888 1168.92 444.993 C 1195.38 460.624 1225.31 474.971 1250.38 492.652 C 1291.87 521.913 1232.14 548.083 1211.07 560.269 L 1162.66 588.676 C 1113.2 617.761 1059.64 650.698 1009.9 678.53 C 1008.59 679.255 1007.27 679.963 1005.94 680.656 C 1001.52 684.147 966.995 705.19 963.015 706.332 C 928.662 728.236 888.239 750.394 852.841 771.489 C 825.99 787.49 783.756 814.704 756.396 827.651 C 732.298 841.334 707.176 859.377 683.719 873.511 C 602.803 922.264 561.39 952.652 533.234 1045.53 C 532.472 1040.4 536.177 1036.82 535.119 1033.45 L 532.557 1033.97 C 529.833 1038.5 532.689 1041.15 529.833 1047.31 C 529.007 1030.31 529.521 1009.48 529.529 992.293 L 529.557 895.424 L 529.428 805.565 C 529.386 774.527 527.759 745.245 534.629 714.782 C 541.719 683.017 557.994 654.038 581.427 631.451 C 600.455 612.766 637.278 592.82 660.242 578.302 C 711.648 545.803 765.104 516.928 816.451 484.317 C 841.888 469.969 867.386 454.827 892.782 440.227 z"/>
<path transform="translate(0,0)" fill="url(#Gradient6)" d="M 892.782 440.227 C 943.738 407.41 993.46 376.869 1056.27 390.301 C 1069.96 393.328 1083.27 397.869 1095.95 403.839 C 1121.19 415.604 1145.04 430.888 1168.92 444.993 C 1195.38 460.624 1225.31 474.971 1250.38 492.652 C 1291.87 521.913 1232.14 548.083 1211.07 560.269 L 1162.66 588.676 C 1113.2 617.761 1059.64 650.698 1009.9 678.53 C 1008.59 679.255 1007.27 679.963 1005.94 680.656 C 1004.6 679.878 1004.41 679.608 1003.23 678.586 C 1004.65 674.927 1003.22 666.867 1001.8 663.113 C 1000.48 661.629 999.215 660.351 996.954 660.067 C 991.18 660.228 990.687 653.465 989.967 652.99 C 941.825 621.239 903.829 572.088 887.078 516.673 C 882.415 501.246 874.26 486.89 878.27 469.842 C 881.003 458.22 889.868 453.212 892.54 441.354 L 892.782 440.227 z"/>
<path transform="translate(0,0)" fill="rgb(64,179,254)" d="M 816.451 484.317 C 841.888 469.969 867.386 454.827 892.782 440.227 L 892.54 441.354 C 889.868 453.212 881.003 458.22 878.27 469.842 C 874.26 486.89 882.415 501.246 887.078 516.673 C 903.829 572.088 941.825 621.239 989.967 652.99 C 990.687 653.465 991.18 660.228 996.954 660.067 C 999.215 660.351 1000.48 661.629 1001.8 663.113 C 1003.22 666.867 1004.65 674.927 1003.23 678.586 C 1004.41 679.608 1004.6 679.878 1005.94 680.656 C 1001.52 684.147 966.995 705.19 963.015 706.332 C 958.252 706.173 957.586 708.045 953.733 707.979 C 953.404 706.975 951.099 697.657 951.596 698.138 C 935.084 681.273 911.773 671.368 894.646 655.823 C 877.045 639.849 862.276 617.278 845.268 599.882 C 833.132 587.468 821.378 563.291 814.191 547.573 C 810.261 538.976 805.376 522.393 804.145 512.824 C 803.958 508.073 815.88 492.738 818.271 487.308 L 816.451 484.317 z"/>
<path transform="translate(0,0)" fill="url(#Gradient5)" d="M 1275.12 792.13 C 1309 774.429 1325.71 767.878 1361.54 788.092 C 1399.14 809.301 1435.21 832.583 1472.49 854.451 C 1500.37 870.804 1516.68 892.476 1519.19 925.707 C 1521.68 958.49 1520.71 993.066 1520.75 1026.14 L 1520.53 1083.56 C 1520.57 1097.45 1521.17 1116.4 1519.95 1130.13 C 1517.92 1126.49 1516.72 1121.51 1514.92 1117.45 C 1500.25 1083.8 1472.39 1040.56 1434.04 1031.86 C 1402.22 1024.65 1370.68 1050.85 1345.69 1067.4 C 1329.38 1078.01 1313.18 1088.79 1297.1 1099.73 C 1295.24 1100.94 1293.86 1101.89 1291.89 1102.89 L 1140.68 1012.96 C 1109.85 994.864 1066.3 971.11 1036.79 950.065 C 1034.94 948.746 1033.77 945.279 1033.86 942.628 C 1039.34 935.941 1048.77 930.864 1056.13 926.228 C 1113.84 889.879 1173.35 856.572 1230.67 819.564 C 1245.26 810.141 1260.55 801.68 1275.12 792.13 z"/>
<path transform="translate(0,0)" fill="url(#Gradient4)" d="M 1275.12 792.13 C 1309 774.429 1325.71 767.878 1361.54 788.092 C 1399.14 809.301 1435.21 832.583 1472.49 854.451 C 1500.37 870.804 1516.68 892.476 1519.19 925.707 C 1521.68 958.49 1520.71 993.066 1520.75 1026.14 L 1520.53 1083.56 C 1520.57 1097.45 1521.17 1116.4 1519.95 1130.13 C 1517.92 1126.49 1516.72 1121.51 1514.92 1117.45 C 1500.25 1083.8 1472.39 1040.56 1434.04 1031.86 C 1402.22 1024.65 1370.68 1050.85 1345.69 1067.4 C 1329.38 1078.01 1313.18 1088.79 1297.1 1099.73 C 1298.53 1087.04 1371.15 1037.43 1384.88 1029.49 C 1421.14 1008.54 1446.87 1020.43 1476.63 1043.43 C 1476.51 1034.79 1473.17 1029.57 1467.92 1022.48 C 1453.98 1003.64 1436.24 987.06 1420.83 969.803 C 1405.11 952.202 1389.94 934.866 1374.04 917.254 C 1351.37 892.158 1332.56 863.095 1311.31 836.623 C 1301.79 824.768 1286.61 809.398 1277.46 797.051 C 1279.3 799.537 1273.85 789.846 1275.12 792.13 z"/>
<path transform="translate(0,0)" fill="url(#Gradient3)" d="M 1339.3 604.213 C 1350.25 603.586 1363.38 604.325 1374.1 603.708 C 1402.39 602.08 1403.75 613.618 1403.47 638.679 C 1403.31 653.073 1407.08 669.461 1390.72 675.826 C 1374.38 676.156 1343.59 678.832 1330.32 672.305 C 1324.12 662.307 1324.56 650.487 1324.75 639.036 C 1325.01 623.867 1322.04 609.386 1339.3 604.213 z"/>
<path transform="translate(0,0)" fill="rgb(64,179,254)" d="M 1421.85 525.227 C 1432.74 524.573 1464.46 523.425 1473.91 528.347 C 1476.68 529.788 1480.44 536.471 1480.96 540.338 C 1482.7 553.232 1484.54 578.581 1478.03 589.924 C 1475.53 594.274 1471.29 595.008 1467.17 595.941 C 1456.87 596.036 1419.65 597.699 1412.37 592.885 C 1402.97 586.672 1403.79 547.55 1406.96 536.886 C 1409.39 528.71 1414 526.716 1421.85 525.227 z"/>
<path transform="translate(0,0)" fill="url(#Gradient2)" d="M 1419.83 687.369 C 1426.64 686.788 1441.8 686.269 1447.86 688.257 C 1459.38 692.032 1457.67 716.963 1453.77 725.668 C 1451.82 730.012 1449.42 730.633 1445.42 731.94 C 1436.18 732.24 1413.91 734.709 1410.11 723.784 C 1407.25 715.604 1407.9 701.738 1411.25 693.579 C 1412.92 689.504 1416.07 688.586 1419.83 687.369 z"/>
<path transform="translate(0,0)" fill="url(#Gradient1)" d="M 1501.6 631.378 C 1506.87 631.144 1524.53 630.761 1527.9 633.306 C 1538.31 641.158 1539.95 669.59 1523.75 673.382 C 1511.98 674.447 1493.27 676.36 1489.72 661.915 C 1487.04 650.969 1488.11 633.754 1501.6 631.378 z"/>
</svg>